# xmcd
#
# Track frame offsets:
#	150
#	10487
#	19340
#	29560
#	33780
#	38757
#	51192
#	58627
#	65325
#	73232
#	76905
#	84780
#	95747
#	110492
#	124907
#
# Disc length: 1873 seconds
#
# Revision: 3
# Processed by: cddbd v1.5.2PL0 Copyright (c) Steve Scherf et al.
# Submitted via: EZCDAudioConverter 8.0.2.1
#
DISCID=c6074f0f
DTITLE=ALVARENGA and RANCHINHO - LUAR DO SERTÃO [CD 7432144781-2) BMG BRASIL LTD
DTITLE=A - 1997
DYEAR=1973
DGENRE=Humor Caipira
TTITLE0=RIMANDO NOME (BY GILMAR SINISTRO)
TTITLE1=PIADAS (BY GILMAR SINISTRO)
TTITLE2=PIADAS (BY GILMAR SINISTRO)
TTITLE3=MEU BOI (GIRL) (PARÓDIA DE ZÉ FIDÉLIS) (BY GILMAR SINISTRO)
TTITLE4=PIADAS (BY GILMAR SINISTRO)
TTITLE5=SÓ SERINDO (BY GILMAR SINISTRO)
TTITLE6=PIADAS (BY GILMAR SINISTRO)
TTITLE7=TRABALHAR É PECADO (BY GILMAR SINISTRO)
TTITLE8=MIZERAVE (BY GILMAR SINISTRO)
TTITLE9=PIADAS (BY GILMAR SINISTRO)
TTITLE10=PIADAS (BY GILMAR SINISTRO)
TTITLE11=MISTER ECO (GOOD MORNING MISTER ECHO) (PARÓDIA DE ALVARENGA) (BY GILM
TTITLE11=AR SINISTRO)
TTITLE12=PIADAS (BY GILMAR SINISTRO)
TTITLE13=DESAFIO DA FAMILIA (BY GILMAR SINISTRO)
TTITLE14=HORÓSCOPO (BY GILMAR SINISTRO)
EXTD=
EXTT0=
EXTT1=
EXTT2=
EXTT3=
EXTT4=
EXTT5=
EXTT6=
EXTT7=
EXTT8=
EXTT9=
EXTT10=
EXTT11=
EXTT12=
EXTT13=
EXTT14=
PLAYORDER=
